<svg width="167" height="55" viewBox="0 0 167 55" fill="none" xmlns="http://www.w3.org/2000/svg">
<path fill-rule="evenodd" clip-rule="evenodd" d="M8.01562 10.6406V4.14844H5.20312V10.6406H0.539062V12.9375H5.20312V29.8594C5.20312 32.0312 5.64062 33.6797 6.51562 34.8047C7.39062 35.9141 8.78906 36.4688 10.7109 36.4688C11.9766 36.4688 12.9766 36.3359 13.7109 36.0703L13.5938 33.7734C12.5469 33.9297 11.7891 34.0078 11.3203 34.0078C10.1328 34.0078 9.28125 33.6641 8.76562 32.9766C8.26562 32.2891 8.01562 31.2422 8.01562 29.8359V12.9375H13.2656V10.6406H8.01562ZM18.4688 16.3594C17.5312 18.3125 17.0625 20.5078 17.0625 22.9453V23.5078C17.0625 27.4141 18.1094 30.5547 20.2031 32.9297C22.3125 35.2891 25.0469 36.4688 28.4062 36.4688C30.6094 36.4688 32.5703 35.9375 34.2891 34.875C36.0078 33.8125 37.3359 32.3047 38.2734 30.3516C39.2266 28.3828 39.7031 26.1719 39.7031 23.7188V23.1328C39.7031 19.2266 38.6562 16.0938 36.5625 13.7344C34.4688 11.3594 31.7344 10.1719 28.3594 10.1719C26.1719 10.1719 24.2109 10.7188 22.4766 11.8125C20.7578 12.8906 19.4219 14.4062 18.4688 16.3594ZM22.2188 31.1953C20.6562 29.2422 19.875 26.75 19.875 23.7188V23.2031C19.875 20.0312 20.6641 17.4688 22.2422 15.5156C23.8203 13.5469 25.8594 12.5625 28.3594 12.5625C30.0312 12.5625 31.5156 13.0078 32.8125 13.8984C34.1094 14.7734 35.1172 16.0156 35.8359 17.625C36.5547 19.2344 36.9141 21.0078 36.9141 22.9453V23.4844C36.9141 26.6719 36.125 29.2422 34.5469 31.1953C32.9844 33.1328 30.9375 34.1016 28.4062 34.1016C25.8594 34.1016 23.7969 33.1328 22.2188 31.1953ZM47.0156 13.6875C45.2656 16.0156 44.3906 19.1484 44.3906 23.0859V23.4141C44.3906 27.4141 45.2812 30.5938 47.0625 32.9531C48.8594 35.2969 51.2188 36.4688 54.1406 36.4688C57.625 36.4688 60.2656 35.1875 62.0625 32.625L62.1797 36H64.8047V0H62.0156V14.2266C60.2188 11.5234 57.6094 10.1719 54.1875 10.1719C51.1719 10.1719 48.7812 11.3438 47.0156 13.6875ZM49.1719 31.2422C47.875 29.3672 47.2266 26.8125 47.2266 23.5781C47.2266 19.9688 47.8828 17.2422 49.1953 15.3984C50.5078 13.5391 52.3438 12.6094 54.7031 12.6094C58.125 12.6094 60.5625 14.2578 62.0156 17.5547V29.4609C60.5625 32.5078 58.1094 34.0312 54.6562 34.0312C52.2969 34.0312 50.4688 33.1016 49.1719 31.2422ZM72.0469 16.3594C71.1094 18.3125 70.6406 20.5078 70.6406 22.9453V23.5078C70.6406 27.4141 71.6875 30.5547 73.7812 32.9297C75.8906 35.2891 78.625 36.4688 81.9844 36.4688C84.1875 36.4688 86.1484 35.9375 87.8672 34.875C89.5859 33.8125 90.9141 32.3047 91.8516 30.3516C92.8047 28.3828 93.2812 26.1719 93.2812 23.7188V23.1328C93.2812 19.2266 92.2344 16.0938 90.1406 13.7344C88.0469 11.3594 85.3125 10.1719 81.9375 10.1719C79.75 10.1719 77.7891 10.7188 76.0547 11.8125C74.3359 12.8906 73 14.4062 72.0469 16.3594ZM75.7969 31.1953C74.2344 29.2422 73.4531 26.75 73.4531 23.7188V23.2031C73.4531 20.0312 74.2422 17.4688 75.8203 15.5156C77.3984 13.5469 79.4375 12.5625 81.9375 12.5625C83.6094 12.5625 85.0938 13.0078 86.3906 13.8984C87.6875 14.7734 88.6953 16.0156 89.4141 17.625C90.1328 19.2344 90.4922 21.0078 90.4922 22.9453V23.4844C90.4922 26.6719 89.7031 29.2422 88.125 31.1953C86.5625 33.1328 84.5156 34.1016 81.9844 34.1016C79.4375 34.1016 77.375 33.1328 75.7969 31.1953ZM111.094 36H113.906V0H111.094V36ZM121.875 36H124.688V10.6406H121.875V36ZM121.898 1.96875C121.555 2.32812 121.383 2.77344 121.383 3.30469C121.383 3.83594 121.555 4.28125 121.898 4.64062C122.242 5 122.711 5.17969 123.305 5.17969C123.898 5.17969 124.367 5 124.711 4.64062C125.07 4.28125 125.25 3.83594 125.25 3.30469C125.25 2.77344 125.07 2.32812 124.711 1.96875C124.367 1.59375 123.898 1.40625 123.305 1.40625C122.711 1.40625 122.242 1.59375 121.898 1.96875ZM145.828 26.2031C146.953 27.0469 147.516 28.1641 147.516 29.5547C147.516 30.8672 146.914 31.9531 145.711 32.8125C144.508 33.6719 142.93 34.1016 140.977 34.1016C138.883 34.1016 137.195 33.6484 135.914 32.7422C134.648 31.8203 133.961 30.5391 133.852 28.8984H131.039C131.039 31.0859 131.953 32.8984 133.781 34.3359C135.625 35.7578 138.023 36.4688 140.977 36.4688C143.758 36.4688 146.008 35.8281 147.727 34.5469C149.461 33.2656 150.328 31.5547 150.328 29.4141C150.328 28.1016 150.031 26.9844 149.438 26.0625C148.844 25.1406 147.93 24.3516 146.695 23.6953C145.477 23.0391 143.633 22.4219 141.164 21.8438C138.711 21.2656 137.016 20.6328 136.078 19.9453C135.156 19.2422 134.695 18.2578 134.695 16.9922C134.695 15.6797 135.25 14.6172 136.359 13.8047C137.484 12.9766 138.969 12.5625 140.812 12.5625C142.703 12.5625 144.266 13.0547 145.5 14.0391C146.75 15.0234 147.375 16.2578 147.375 17.7422H150.188C150.188 15.4922 149.328 13.6719 147.609 12.2812C145.906 10.875 143.641 10.1719 140.812 10.1719C138.203 10.1719 136.062 10.8281 134.391 12.1406C132.719 13.4375 131.883 15.0859 131.883 17.0859C131.883 18.3516 132.18 19.4297 132.773 20.3203C133.383 21.2109 134.305 21.9688 135.539 22.5938C136.789 23.2031 138.539 23.75 140.789 24.2344C143.039 24.7031 144.719 25.3594 145.828 26.2031ZM161.016 10.6406V4.14844H158.203V10.6406H153.539V12.9375H158.203V29.8594C158.203 32.0312 158.641 33.6797 159.516 34.8047C160.391 35.9141 161.789 36.4688 163.711 36.4688C164.977 36.4688 165.977 36.3359 166.711 36.0703L166.594 33.7734C165.547 33.9297 164.789 34.0078 164.32 34.0078C163.133 34.0078 162.281 33.6641 161.766 32.9766C161.266 32.2891 161.016 31.2422 161.016 29.8359V12.9375H166.266V10.6406H161.016ZM5.21484 51.2441C5.64062 50.6621 5.85352 49.877 5.85352 48.8887V48.7891C5.85352 47.7617 5.64062 46.9648 5.21484 46.3984C4.78906 45.8281 4.20508 45.543 3.46289 45.543C2.99023 45.543 2.56836 45.6504 2.19727 45.8652C1.82617 46.0801 1.53125 46.3887 1.3125 46.791V45.6602H0.996094V54.4375H1.3125V51.0156C1.52344 51.3594 1.81641 51.6289 2.19141 51.8242C2.56641 52.0195 2.99414 52.1172 3.47461 52.1172C4.20898 52.1172 4.78906 51.8262 5.21484 51.2441ZM4.98633 46.6328C5.34961 47.1445 5.53125 47.8555 5.53125 48.7656C5.53125 49.7578 5.35156 50.5117 4.99219 51.0273C4.63281 51.543 4.12891 51.8008 3.48047 51.8008C2.94531 51.8008 2.49023 51.6816 2.11523 51.4434C1.74414 51.2012 1.47656 50.8613 1.3125 50.4238V47.459C1.47656 46.9434 1.74414 46.5488 2.11523 46.2754C2.48633 45.998 2.9375 45.8594 3.46875 45.8594C4.12109 45.8594 4.62695 46.1172 4.98633 46.6328ZM7.44727 47.0781C7.2168 47.5586 7.10156 48.1016 7.10156 48.707V48.9883C7.10547 49.5859 7.22461 50.125 7.45898 50.6055C7.69336 51.082 8.02148 51.4531 8.44336 51.7188C8.86914 51.9844 9.34961 52.1172 9.88477 52.1172C10.4199 52.1172 10.8984 51.9824 11.3203 51.7129C11.7461 51.4434 12.0742 51.0684 12.3047 50.5879C12.5352 50.1074 12.6504 49.5625 12.6504 48.9531V48.6719C12.6465 48.0703 12.5254 47.5293 12.2871 47.0488C12.0527 46.5684 11.7246 46.1973 11.3027 45.9355C10.8809 45.6738 10.4043 45.543 9.87305 45.543C9.33789 45.543 8.85742 45.6777 8.43164 45.9473C8.00977 46.2168 7.68164 46.5938 7.44727 47.0781ZM7.72852 50.4062C7.52148 49.9648 7.41797 49.4805 7.41797 48.9531V48.7656C7.41797 47.9297 7.64648 47.2363 8.10352 46.6855C8.56055 46.1348 9.15039 45.8594 9.87305 45.8594C10.3457 45.8594 10.7676 45.9844 11.1387 46.2344C11.5137 46.4805 11.8066 46.8242 12.0176 47.2656C12.2285 47.707 12.334 48.1875 12.334 48.707V48.8887C12.334 49.7441 12.1055 50.4434 11.6484 50.9863C11.1953 51.5293 10.6074 51.8008 9.88477 51.8008C9.4043 51.8008 8.97656 51.6777 8.60156 51.4316C8.23047 51.1855 7.93945 50.8438 7.72852 50.4062ZM15.6738 51.5312L15.3281 50.166L14.0332 45.6602H13.6699L15.5098 52H15.8262L17.3672 47.2363L17.6895 46.0996L17.9883 47.2363L19.5527 52H19.8691L21.7148 45.6602H21.3457L20.0566 50.166L19.6992 51.5312L17.8535 45.6602H17.5312L15.6738 51.5312ZM24.1406 51.707C24.5703 51.9805 25.041 52.1172 25.5527 52.1172C26.4824 52.1172 27.1836 51.7754 27.6562 51.0918L27.4336 50.9336C27.2031 51.2305 26.9375 51.4512 26.6367 51.5957C26.3398 51.7363 25.9785 51.8066 25.5527 51.8066C25.1074 51.8066 24.6934 51.6816 24.3105 51.4316C23.9316 51.1816 23.6328 50.8379 23.4141 50.4004C23.1992 49.959 23.0918 49.4805 23.0918 48.9648V48.6191H27.8438V48.2852C27.8438 47.4648 27.6191 46.8027 27.1699 46.2988C26.7207 45.7949 26.1426 45.543 25.4355 45.543C24.9512 45.543 24.5039 45.6797 24.0938 45.9531C23.6836 46.2266 23.3613 46.6074 23.127 47.0957C22.8926 47.584 22.7754 48.1211 22.7754 48.707V48.9707C22.7754 49.5566 22.8965 50.0898 23.1387 50.5703C23.3809 51.0508 23.7148 51.4297 24.1406 51.707ZM23.8652 46.5508C24.2949 46.0898 24.8184 45.8594 25.4355 45.8594C25.8301 45.8594 26.1855 45.9629 26.502 46.1699C26.8223 46.373 27.0723 46.6602 27.252 47.0312C27.4355 47.3984 27.5273 47.7969 27.5273 48.2266V48.3027H23.1094C23.1836 47.5918 23.4355 47.0078 23.8652 46.5508ZM31.7051 45.8535L32.1152 45.8887L32.1504 45.6074C32.0371 45.5645 31.8887 45.543 31.7051 45.543C31.1855 45.543 30.7539 45.6719 30.4102 45.9297C30.0664 46.1875 29.8086 46.5371 29.6367 46.9785V45.6602H29.3203V52H29.6367V47.8457C29.75 47.2168 29.9883 46.7285 30.3516 46.3809C30.7148 46.0293 31.166 45.8535 31.7051 45.8535ZM34.0898 51.707C34.5195 51.9805 34.9902 52.1172 35.502 52.1172C36.4316 52.1172 37.1328 51.7754 37.6055 51.0918L37.3828 50.9336C37.1523 51.2305 36.8867 51.4512 36.5859 51.5957C36.2891 51.7363 35.9277 51.8066 35.502 51.8066C35.0566 51.8066 34.6426 51.6816 34.2598 51.4316C33.8809 51.1816 33.582 50.8379 33.3633 50.4004C33.1484 49.959 33.041 49.4805 33.041 48.9648V48.6191H37.793V48.2852C37.793 47.4648 37.5684 46.8027 37.1191 46.2988C36.6699 45.7949 36.0918 45.543 35.3848 45.543C34.9004 45.543 34.4531 45.6797 34.043 45.9531C33.6328 46.2266 33.3105 46.6074 33.0762 47.0957C32.8418 47.584 32.7246 48.1211 32.7246 48.707V48.9707C32.7246 49.5566 32.8457 50.0898 33.0879 50.5703C33.3301 51.0508 33.6641 51.4297 34.0898 51.707ZM33.8145 46.5508C34.2441 46.0898 34.7676 45.8594 35.3848 45.8594C35.7793 45.8594 36.1348 45.9629 36.4512 46.1699C36.7715 46.373 37.0215 46.6602 37.2012 47.0312C37.3848 47.3984 37.4766 47.7969 37.4766 48.2266V48.3027H33.0586C33.1328 47.5918 33.3848 47.0078 33.8145 46.5508ZM39.6152 46.3984C39.1895 46.9648 38.9766 47.7539 38.9766 48.7656V48.8477C38.9766 49.8633 39.1895 50.6621 39.6152 51.2441C40.041 51.8262 40.6211 52.1172 41.3555 52.1172C41.832 52.1172 42.2578 52.0195 42.6328 51.8242C43.0078 51.625 43.3027 51.3457 43.5176 50.9863V52H43.834V43H43.5176V46.8262C43.291 46.4004 42.9941 46.0801 42.627 45.8652C42.2637 45.6504 41.8438 45.543 41.3672 45.543C40.625 45.543 40.041 45.8281 39.6152 46.3984ZM39.8379 51.0215C39.4824 50.498 39.3047 49.7871 39.3047 48.8887C39.3047 47.8926 39.4844 47.1387 39.8438 46.627C40.207 46.1152 40.7129 45.8594 41.3613 45.8594C42.4355 45.8594 43.1543 46.3926 43.5176 47.459V50.4297C43.3379 50.8789 43.0625 51.2207 42.6914 51.4551C42.3203 51.6855 41.873 51.8008 41.3496 51.8008C40.6973 51.8008 40.1934 51.541 39.8379 51.0215ZM49.1133 52H49.4297V43.4688H49.1133V52ZM55.9863 45.6602L53.707 51.4961L51.4277 45.6602H51.0879L53.5488 52H53.8594L56.3262 45.6602H55.9863ZM61.459 50.8398C61.459 51.3438 61.498 51.7305 61.5762 52H61.9395V51.9473C61.8301 51.6973 61.7754 51.2246 61.7754 50.5293V47.5C61.7637 46.8789 61.5566 46.3984 61.1543 46.0586C60.752 45.7148 60.209 45.543 59.5254 45.543C58.8691 45.543 58.3145 45.7227 57.8613 46.082C57.4082 46.4414 57.1816 46.8789 57.1816 47.3945L57.498 47.4062C57.498 46.9688 57.6914 46.6016 58.0781 46.3047C58.4648 46.0078 58.9473 45.8594 59.5254 45.8594C60.1465 45.8594 60.623 46.0059 60.9551 46.2988C61.291 46.5918 61.459 47.0039 61.459 47.5352V48.4609H59.8945C59.0234 48.4688 58.3242 48.6484 57.7969 49C57.2734 49.3477 57.0117 49.8125 57.0117 50.3945C57.0117 50.9062 57.1895 51.3223 57.5449 51.6426C57.9043 51.959 58.377 52.1172 58.9629 52.1172C59.5098 52.1172 60 52.0059 60.4336 51.7832C60.8672 51.5605 61.209 51.2461 61.459 50.8398ZM60.4922 51.4082C60.0664 51.6738 59.5566 51.8066 58.9629 51.8066C58.4902 51.8066 58.0996 51.6719 57.791 51.4023C57.4824 51.1328 57.3281 50.8047 57.3281 50.418C57.3281 49.9805 57.5234 49.6152 57.9141 49.3223C58.3945 48.9629 59.0879 48.7832 59.9941 48.7832H61.459V50.2891C61.2441 50.7695 60.9219 51.1426 60.4922 51.4082ZM65.0508 45.9707C64.6484 46.2559 64.3438 46.6445 64.1367 47.1367V45.6602H63.8203V52H64.1367V47.9395C64.2773 47.3262 64.5469 46.8262 64.9453 46.4395C65.3477 46.0488 65.8223 45.8535 66.3691 45.8535C66.9629 45.8535 67.3965 46.0176 67.6699 46.3457C67.9434 46.6699 68.082 47.1719 68.0859 47.8516V52H68.4023V47.8633C68.3984 47.0859 68.2305 46.5059 67.8984 46.123C67.5703 45.7363 67.0664 45.543 66.3867 45.543C65.8984 45.543 65.4531 45.6855 65.0508 45.9707ZM71.6309 48.584L71.6426 48.5723L74.5605 52H74.9707L71.877 48.3613L74.7891 45.6602H74.3379L71.4551 48.3262L70.7109 49.0293V43H70.3945V52H70.7109V49.375L71.6309 48.584ZM76.9277 45.9473C76.5059 46.2168 76.1777 46.5938 75.9434 47.0781C75.7129 47.5586 75.5977 48.1016 75.5977 48.707V48.9883C75.6016 49.5859 75.7207 50.125 75.9551 50.6055C76.1895 51.082 76.5176 51.4531 76.9395 51.7188C77.3652 51.9844 77.8457 52.1172 78.3809 52.1172C78.916 52.1172 79.3945 51.9824 79.8164 51.7129C80.2422 51.4434 80.5703 51.0684 80.8008 50.5879C81.0312 50.1074 81.1465 49.5625 81.1465 48.9531V48.6719C81.1426 48.0703 81.0215 47.5293 80.7832 47.0488C80.5488 46.5684 80.2207 46.1973 79.7988 45.9355C79.377 45.6738 78.9004 45.543 78.3691 45.543C77.834 45.543 77.3535 45.6777 76.9277 45.9473ZM76.2246 50.4062C76.0176 49.9648 75.9141 49.4805 75.9141 48.9531V48.7656C75.9141 47.9297 76.1426 47.2363 76.5996 46.6855C77.0566 46.1348 77.6465 45.8594 78.3691 45.8594C78.8418 45.8594 79.2637 45.9844 79.6348 46.2344C80.0098 46.4805 80.3027 46.8242 80.5137 47.2656C80.7246 47.707 80.8301 48.1875 80.8301 48.707V48.8887C80.8301 49.7441 80.6016 50.4434 80.1445 50.9863C79.6914 51.5293 79.1035 51.8008 78.3809 51.8008C77.9004 51.8008 77.4727 51.6777 77.0977 51.4316C76.7266 51.1855 76.4355 50.8438 76.2246 50.4062ZM86.7363 45.6602L84.457 51.4961L82.1777 45.6602H81.8379L84.2988 52H84.6094L87.0762 45.6602H86.7363ZM91.6758 49.4512H95.8535L96.8086 52H97.1543L93.9609 43.4688H93.5742L90.3809 52H90.7266L91.6758 49.4512ZM95.7363 49.1348H91.793L93.7676 43.8496L95.7363 49.1348ZM98.4434 52H98.7598V43H98.4434V52ZM101.707 51.707C102.137 51.9805 102.607 52.1172 103.119 52.1172C104.049 52.1172 104.75 51.7754 105.223 51.0918L105 50.9336C104.77 51.2305 104.504 51.4512 104.203 51.5957C103.906 51.7363 103.545 51.8066 103.119 51.8066C102.674 51.8066 102.26 51.6816 101.877 51.4316C101.498 51.1816 101.199 50.8379 100.98 50.4004C100.766 49.959 100.658 49.4805 100.658 48.9648V48.6191H105.41V48.2852C105.41 47.4648 105.186 46.8027 104.736 46.2988C104.287 45.7949 103.709 45.543 103.002 45.543C102.518 45.543 102.07 45.6797 101.66 45.9531C101.25 46.2266 100.928 46.6074 100.693 47.0957C100.459 47.584 100.342 48.1211 100.342 48.707V48.9707C100.342 49.5566 100.463 50.0898 100.705 50.5703C100.947 51.0508 101.281 51.4297 101.707 51.707ZM101.432 46.5508C101.861 46.0898 102.385 45.8594 103.002 45.8594C103.396 45.8594 103.752 45.9629 104.068 46.1699C104.389 46.373 104.639 46.6602 104.818 47.0312C105.002 47.3984 105.094 47.7969 105.094 48.2266V48.3027H100.676C100.75 47.5918 101.002 47.0078 101.432 46.5508ZM110.766 45.6602L108.744 48.4727L106.717 45.6602H106.318L108.545 48.748L106.201 52H106.594L108.738 49.0234L110.889 52H111.281L108.938 48.748L111.164 45.6602H110.766ZM116.596 50.8398C116.596 51.3438 116.635 51.7305 116.713 52H117.076V51.9473C116.967 51.6973 116.912 51.2246 116.912 50.5293V47.5C116.9 46.8789 116.693 46.3984 116.291 46.0586C115.889 45.7148 115.346 45.543 114.662 45.543C114.006 45.543 113.451 45.7227 112.998 46.082C112.545 46.4414 112.318 46.8789 112.318 47.3945L112.635 47.4062C112.635 46.9688 112.828 46.6016 113.215 46.3047C113.602 46.0078 114.084 45.8594 114.662 45.8594C115.283 45.8594 115.76 46.0059 116.092 46.2988C116.428 46.5918 116.596 47.0039 116.596 47.5352V48.4609H115.031C114.16 48.4688 113.461 48.6484 112.934 49C112.41 49.3477 112.148 49.8125 112.148 50.3945C112.148 50.9062 112.326 51.3223 112.682 51.6426C113.041 51.959 113.514 52.1172 114.1 52.1172C114.646 52.1172 115.137 52.0059 115.57 51.7832C116.004 51.5605 116.346 51.2461 116.596 50.8398ZM115.629 51.4082C115.203 51.6738 114.693 51.8066 114.1 51.8066C113.627 51.8066 113.236 51.6719 112.928 51.4023C112.619 51.1328 112.465 50.8047 112.465 50.418C112.465 49.9805 112.66 49.6152 113.051 49.3223C113.531 48.9629 114.225 48.7832 115.131 48.7832H116.596V50.2891C116.381 50.7695 116.059 51.1426 115.629 51.4082ZM120.188 45.9707C119.785 46.2559 119.48 46.6445 119.273 47.1367V45.6602H118.957V52H119.273V47.9395C119.414 47.3262 119.684 46.8262 120.082 46.4395C120.484 46.0488 120.959 45.8535 121.506 45.8535C122.1 45.8535 122.533 46.0176 122.807 46.3457C123.08 46.6699 123.219 47.1719 123.223 47.8516V52H123.539V47.8633C123.535 47.0859 123.367 46.5059 123.035 46.123C122.707 45.7363 122.203 45.543 121.523 45.543C121.035 45.543 120.59 45.6855 120.188 45.9707ZM125.877 46.3984C125.451 46.9648 125.238 47.7539 125.238 48.7656V48.8477C125.238 49.8633 125.451 50.6621 125.877 51.2441C126.303 51.8262 126.883 52.1172 127.617 52.1172C128.094 52.1172 128.52 52.0195 128.895 51.8242C129.27 51.625 129.564 51.3457 129.779 50.9863V52H130.096V43H129.779V46.8262C129.553 46.4004 129.256 46.0801 128.889 45.8652C128.525 45.6504 128.105 45.543 127.629 45.543C126.887 45.543 126.303 45.8281 125.877 46.3984ZM126.1 51.0215C125.744 50.498 125.566 49.7871 125.566 48.8887C125.566 47.8926 125.746 47.1387 126.105 46.627C126.469 46.1152 126.975 45.8594 127.623 45.8594C128.697 45.8594 129.416 46.3926 129.779 47.459V50.4297C129.6 50.8789 129.324 51.2207 128.953 51.4551C128.582 51.6855 128.135 51.8008 127.611 51.8008C126.959 51.8008 126.455 51.541 126.1 51.0215ZM132.973 51.707C133.402 51.9805 133.873 52.1172 134.385 52.1172C135.314 52.1172 136.016 51.7754 136.488 51.0918L136.266 50.9336C136.035 51.2305 135.77 51.4512 135.469 51.5957C135.172 51.7363 134.811 51.8066 134.385 51.8066C133.939 51.8066 133.525 51.6816 133.143 51.4316C132.764 51.1816 132.465 50.8379 132.246 50.4004C132.031 49.959 131.924 49.4805 131.924 48.9648V48.6191H136.676V48.2852C136.676 47.4648 136.451 46.8027 136.002 46.2988C135.553 45.7949 134.975 45.543 134.268 45.543C133.783 45.543 133.336 45.6797 132.926 45.9531C132.516 46.2266 132.193 46.6074 131.959 47.0957C131.725 47.584 131.607 48.1211 131.607 48.707V48.9707C131.607 49.5566 131.729 50.0898 131.971 50.5703C132.213 51.0508 132.547 51.4297 132.973 51.707ZM132.697 46.5508C133.127 46.0898 133.65 45.8594 134.268 45.8594C134.662 45.8594 135.018 45.9629 135.334 46.1699C135.654 46.373 135.904 46.6602 136.084 47.0312C136.268 47.3984 136.359 47.7969 136.359 48.2266V48.3027H131.941C132.016 47.5918 132.268 47.0078 132.697 46.5508ZM140.537 45.8535L140.947 45.8887L140.982 45.6074C140.869 45.5645 140.721 45.543 140.537 45.543C140.018 45.543 139.586 45.6719 139.242 45.9297C138.898 46.1875 138.641 46.5371 138.469 46.9785V45.6602H138.152V52H138.469V47.8457C138.582 47.2168 138.82 46.7285 139.184 46.3809C139.547 46.0293 139.998 45.8535 140.537 45.8535Z" fill="black"/>
</svg>
